<svg width="224" height="51" viewBox="0 0 224 51" fill="none" xmlns="http://www.w3.org/2000/svg">
<path d="M206.783 28.3196C207.355 28.33 207.443 28.436 207.489 28.9926C207.683 31.3398 209.254 47.529 209.338 47.8617C209.442 48.2795 209.612 48.2049 209.93 48.2184C210.491 48.2422 210.503 48.0826 210.53 47.8408C210.642 46.8082 212.306 29.7208 212.374 28.9045C212.418 28.3838 212.464 28.3226 212.982 28.3211C214.325 28.3151 220.925 28.3181 223.268 28.3196C223.965 28.3196 223.999 28.3554 223.999 29.0627C224 35.7449 224 42.4285 223.999 49.1107C223.999 49.7807 223.982 49.7986 223.333 49.8001C221.161 49.8031 218.47 49.8061 218.36 49.7956C218.067 49.7673 218.006 49.7076 217.984 49.4047C217.97 49.2152 218.003 41.2363 217.966 34.478C217.961 33.5737 218.114 32.7246 218.393 31.88C218.549 31.407 218.693 30.928 218.837 30.4505C218.869 30.346 218.881 30.2356 218.906 30.1088C218.645 29.9297 218.369 29.9834 218.109 30.0282C218.031 30.0416 217.937 30.1744 217.918 30.2669C217.821 30.7355 215.883 47.6648 215.671 49.245C215.604 49.7434 215.531 49.8001 215.011 49.8001C211.615 49.8031 208.219 49.8031 204.822 49.8001C204.29 49.8001 204.218 49.7091 204.164 49.1973C204.052 48.1288 202.545 35.2554 202.329 33.4498C202.205 32.4127 202.069 31.3772 201.948 30.3401C201.92 30.1013 201.81 29.9939 201.577 29.9968C201.371 29.9998 201.166 29.9968 200.889 29.9968C200.937 30.2386 200.956 30.4236 201.011 30.5982C201.254 31.3816 201.519 32.1591 201.753 32.9455C201.83 33.2036 201.877 33.4797 201.878 33.7483C201.886 38.8845 201.884 44.0222 201.883 49.1585C201.883 49.7748 201.857 49.7971 201.219 49.8001C200.604 49.8031 196.294 49.8001 196.15 49.7852C195.982 49.7688 195.888 49.6673 195.876 49.5002C195.865 49.3316 195.865 29.1149 195.865 29.1149C195.865 28.3464 195.893 28.3196 196.645 28.3181C197.012 28.3181 206.653 28.3181 206.783 28.3196Z" fill="black" style="fill:black;fill-opacity:1;"/>
<path d="M102.241 6.06163C101.649 5.63634 101.005 5.42743 100.326 5.36476C99.6236 5.2991 98.9148 5.25732 98.2105 5.27075C97.4345 5.28567 96.6795 5.46473 95.9751 5.80795C95.1305 6.2198 94.5262 6.86892 94.1621 7.73142C93.898 8.35815 93.7696 9.02219 93.7159 9.69817C93.6786 10.1622 93.6144 10.6278 93.6249 11.0904C93.6473 12.1036 93.7428 13.1139 94.0397 14.0883C94.5351 15.7148 95.6603 16.5997 97.5062 16.7161C98.1762 16.7594 98.8551 16.7788 99.5236 16.6206C100.177 16.4669 100.788 16.2132 101.276 15.7491C101.744 15.303 101.983 14.7299 102.044 14.0182C101.859 13.9958 101.693 13.9585 101.528 13.9585C100.674 13.9525 99.8221 13.9555 98.9685 13.9555C98.8402 13.9555 98.7104 13.96 98.582 13.951C98.2478 13.9256 98.1583 13.8391 98.1299 13.5138C98.1195 13.4019 98.1239 13.2885 98.1239 13.1765C98.1239 12.2111 98.1224 11.2441 98.1239 10.2786C98.1254 9.51015 98.1523 9.48031 98.9029 9.48031C101.896 9.47881 104.89 9.48031 107.883 9.48031C108.511 9.48031 109.14 9.46389 109.766 9.48628C110.35 9.50717 110.915 9.62206 111.409 9.96826C112.182 10.5114 112.527 11.2874 112.54 12.2006C112.564 13.7301 112.546 15.2597 112.548 16.7892C112.548 18.1576 112.548 19.5259 112.548 20.8943C112.548 21.0077 112.551 21.1196 112.546 21.233C112.527 21.6136 112.476 21.6628 112.081 21.6852C112.017 21.6882 111.952 21.6867 111.888 21.6867C110.344 21.6867 108.798 21.6867 107.253 21.6867C107.173 21.6867 107.092 21.6897 107.012 21.6822C106.716 21.6538 106.653 21.5956 106.63 21.2972C106.618 21.1525 106.624 21.0077 106.624 20.863C106.624 19.0111 106.64 17.1593 106.615 15.3089C106.606 14.6359 106.724 14.0002 106.93 13.369C107.134 12.7423 107.329 12.1111 107.526 11.4814C107.559 11.3769 107.573 11.2665 107.6 11.1397C107.288 11.0054 106.985 11.0531 106.691 11.0889C106.612 11.0979 106.512 11.2202 106.486 11.3098C106.449 11.4456 106.47 11.5963 106.464 11.741C106.373 13.9152 106.01 16.0237 104.973 17.9696C103.781 20.2079 101.959 21.5688 99.4177 21.8866C97.8091 22.0881 96.2094 22.0329 94.6351 21.6031C93.1802 21.2062 91.9014 20.5108 90.818 19.4409C89.9704 18.6037 89.2721 17.6696 88.7886 16.5878C88.3469 15.6014 88.0529 14.5658 87.8888 13.4929C87.7321 12.4722 87.65 11.4471 87.7008 10.4174C87.8186 8.04479 88.4603 5.84674 90.0018 3.99042C91.7298 1.90728 93.9203 0.610537 96.6183 0.188238C97.5927 0.0360315 98.5701 -0.0430526 99.5475 0.0240974C100.996 0.124076 102.404 0.419536 103.742 1.02239C105.019 1.5969 106.154 2.36539 107.132 3.3622C108.183 4.43212 108.843 5.72438 109.232 7.16139C109.283 7.34643 109.295 7.54191 109.326 7.73142C109.36 7.93735 109.253 8.03285 109.063 8.05225C108.951 8.06419 108.838 8.06418 108.726 8.06418C107.165 8.06418 105.604 8.06568 104.042 8.06418C103.481 8.06269 103.463 8.05523 103.284 7.52549C103.087 6.93905 102.745 6.46452 102.241 6.06163Z" fill="black" style="fill:black;fill-opacity:1;"/>
<path d="M114.159 0.856798C114.162 0.349443 114.209 0.303183 114.715 0.301691C116.292 0.297215 117.869 0.298705 119.446 0.300198C120.052 0.30169 120.079 0.325566 120.079 0.920962C120.081 3.25629 120.081 5.59012 120.081 7.92545C120.081 8.70439 120.082 8.70439 120.843 8.70439C123.58 8.70439 129.052 8.70439 129.052 8.70439C129.085 8.70439 129.116 8.70439 129.149 8.70439C129.798 8.70141 129.801 8.70141 129.801 8.06572C129.802 5.74681 129.801 3.4279 129.801 1.10898C129.801 0.298707 129.802 0.298708 130.587 0.298708C132.43 0.298708 135.243 0.300202 135.416 0.309155C135.609 0.319601 135.707 0.428529 135.716 0.618042C135.724 0.776217 135.727 11.2009 135.725 21.0033C135.725 21.6628 135.706 21.6822 135.051 21.6837C133.521 21.6852 131.993 21.6837 130.463 21.6837C130.366 21.6837 130.271 21.6807 130.174 21.6793C129.943 21.6748 129.813 21.5659 129.808 21.3271C129.805 21.154 129.804 17.4607 129.801 14.6121C129.801 13.9675 129.789 13.9555 129.161 13.9555C126.343 13.954 123.528 13.9555 120.71 13.9555C120.677 13.9555 120.646 13.9555 120.613 13.9555C120.106 13.966 120.082 13.9869 120.081 14.5196C120.076 15.9924 120.078 21.2286 120.069 21.3793C120.06 21.5479 119.967 21.6479 119.8 21.6658C119.627 21.6852 114.649 21.6897 114.538 21.6793C114.245 21.6509 114.183 21.5912 114.161 21.2898C114.151 21.1301 114.154 1.82227 114.159 0.856798Z" fill="black" style="fill:black;fill-opacity:1;"/>
<path d="M145.511 40.2693C144.478 39.85 143.464 39.4844 142.54 38.9144C141.681 38.3847 140.945 37.7236 140.387 36.8745C139.972 36.2433 139.77 35.5435 139.638 34.8048C139.5 34.0393 139.573 33.2992 139.738 32.5575C140.091 30.9609 141.1 29.8954 142.53 29.1926C143.713 28.6106 144.975 28.3465 146.283 28.2032C147.376 28.0824 148.472 28.0883 149.558 28.145C151.264 28.2331 152.941 28.5211 154.478 29.3537C156.4 30.3953 157.622 31.9696 158.089 34.108C158.187 34.5586 158.201 35.0316 158.217 35.4957C158.228 35.7957 158.146 35.8524 157.844 35.8822C157.749 35.8912 157.652 35.8882 157.555 35.8882C156.027 35.8882 154.497 35.8882 152.969 35.8882C152.857 35.8882 152.744 35.8852 152.632 35.8807C152.445 35.8718 152.339 35.7793 152.308 35.5897C152.277 35.3987 152.231 35.2122 152.19 35.0227C152.072 34.4586 151.731 34.0811 151.22 33.8379C149.909 33.2141 148.19 33.329 147.429 33.3887C146.969 33.4245 146.514 33.5424 146.063 33.6484C145.796 33.711 145.598 33.8797 145.58 34.1796C145.56 34.4944 145.677 34.766 145.971 34.8959C146.572 35.163 147.178 35.4271 147.796 35.6509C149.609 36.3105 151.437 36.9283 153.241 37.6087C154.46 38.0683 155.63 38.6518 156.673 39.4471C157.259 39.8948 157.843 40.3544 158.262 40.9796C158.763 41.7302 159.08 42.5405 159.101 43.4552C159.122 44.3491 159.008 45.2161 158.655 46.0472C158.199 47.1186 157.461 47.9424 156.497 48.5751C155.312 49.3525 153.97 49.6748 152.598 49.8942C151.195 50.1195 149.777 50.1508 148.366 50.0777C146.548 49.9822 144.743 49.7494 143.053 49.0063C141.182 48.1826 139.86 46.8336 139.162 44.8863C138.821 43.9357 138.705 42.9509 138.601 41.9585C138.589 41.8481 138.577 41.7198 138.621 41.6258C138.669 41.5258 138.771 41.4243 138.872 41.384C138.986 41.3408 139.126 41.3631 139.254 41.3631C140.782 41.3617 142.312 41.3631 143.84 41.3631C143.888 41.3631 143.937 41.3631 143.985 41.3631C144.468 41.3736 144.559 41.4631 144.61 41.957C144.631 42.1645 144.655 42.3719 144.698 42.5748C144.91 43.5642 145.523 44.1864 146.475 44.4834C147.2 44.7087 147.949 44.8087 148.704 44.8355C149.443 44.8609 150.185 44.8549 150.925 44.837C151.469 44.8221 152.016 44.7699 152.53 44.564C153.247 44.2775 153.371 43.6045 152.744 43.1523C152.32 42.8464 151.829 42.6166 151.341 42.4181C150.447 42.054 149.536 41.7362 148.63 41.4049C147.603 41.0274 146.574 40.6558 145.511 40.2693Z" fill="black" style="fill:black;fill-opacity:1;"/>
<path d="M107.489 49.8091C106.376 49.642 105.336 49.3584 104.361 48.8824C102.887 48.1632 101.758 47.1007 101.038 45.5921C100.449 44.3535 100.252 43.0538 100.221 41.7078C100.215 41.4765 100.322 41.384 100.531 41.3706C100.643 41.3631 100.756 41.3631 100.868 41.3631C102.413 41.3631 103.957 41.3631 105.503 41.3631C105.6 41.3631 105.697 41.3601 105.793 41.3676C106.092 41.3944 106.131 41.4467 106.173 41.7526C106.224 42.1167 106.254 42.4912 106.363 42.8389C106.607 43.6223 107.118 44.1566 107.917 44.4252C108.75 44.7042 109.602 44.8236 110.474 44.84C111.133 44.8519 111.794 44.8669 112.452 44.834C112.946 44.8087 113.439 44.7206 113.928 44.6356C114.097 44.6057 114.265 44.5207 114.41 44.4252C114.752 44.1983 114.847 43.779 114.594 43.4582C114.409 43.2254 114.173 42.9956 113.91 42.8703C113.184 42.5285 112.439 42.2196 111.687 41.9376C109.969 41.296 108.234 40.7021 106.524 40.0425C105.384 39.6023 104.264 39.1024 103.298 38.3264C102.055 37.3311 101.322 36.0657 101.213 34.4571C101.165 33.7632 101.192 33.0813 101.362 32.4038C101.646 31.2712 102.316 30.4072 103.239 29.7402C104.385 28.912 105.703 28.533 107.086 28.3047C108.464 28.0779 109.845 28.0794 111.221 28.145C113.031 28.2316 114.8 28.5837 116.384 29.5343C117.445 30.1715 118.323 31.0056 118.929 32.1113C119.479 33.1186 119.797 34.1811 119.793 35.3316C119.791 35.8374 119.745 35.8852 119.239 35.8867C117.63 35.8911 116.02 35.8911 114.412 35.8867C113.936 35.8852 113.936 35.8628 113.862 35.3659C113.745 34.5511 113.297 34.0602 112.521 33.7035C111.57 33.2663 109.783 33.2723 108.941 33.3812C108.443 33.4454 107.947 33.4812 107.498 33.7214C107.077 33.9468 107.007 34.3183 107.335 34.6705C107.474 34.8197 107.647 34.9615 107.832 35.0391C108.47 35.3047 109.116 35.5494 109.765 35.7867C111.606 36.4597 113.47 37.0804 115.288 37.8101C116.844 38.4354 118.306 39.2516 119.461 40.52C120.215 41.3482 120.666 42.2987 120.66 43.4328C120.657 43.9133 120.649 44.3998 120.577 44.8728C120.309 46.6441 119.266 47.8811 117.771 48.7616C116.632 49.4316 115.368 49.739 114.064 49.9091C112.833 50.0702 111.599 50.1419 110.362 50.0822C109.413 50.0359 108.473 49.9061 107.489 49.8091Z" fill="black" style="fill:black;fill-opacity:1;"/>
<path d="M94.1682 49.0271C92.8132 49.6315 91.424 49.9851 89.9885 50.0687C87.5308 50.2134 85.1358 49.9284 82.9318 48.7108C82.2826 48.3526 81.6887 47.9244 81.1262 47.4334C79.9906 46.4411 79.1505 45.2473 78.5207 43.8909C78.1253 43.0388 77.8716 42.1405 77.7493 41.2124C77.6597 40.5289 77.5627 39.8395 77.5627 39.1516C77.5627 37.3132 77.8821 35.5255 78.7207 33.8766C79.0669 33.1947 79.5459 32.5769 79.9906 31.9486C80.4875 31.2458 81.1426 30.7012 81.826 30.1848C83.0168 29.2865 84.3613 28.7523 85.8043 28.4166C87.1816 28.0957 88.5813 28.0629 89.975 28.142C91.8105 28.245 93.5564 28.7269 95.1411 29.6879C95.6888 30.0192 96.217 30.3878 96.6677 30.8563C97.1899 31.401 97.7361 31.9203 98.1718 32.547C98.9433 33.6558 99.485 34.86 99.7954 36.1746C100.101 37.4714 100.162 38.7905 100.074 40.1051C99.961 41.8078 99.5014 43.4238 98.6299 44.9116C98.0718 45.8636 97.3824 46.7097 96.5647 47.4439C95.8574 48.0796 95.0665 48.6033 94.1682 49.0271ZM90.8748 33.6095C89.5736 33.2722 88.2664 33.2514 86.9667 33.5886C86.1952 33.7886 85.4924 34.1601 84.9433 34.751C84.3419 35.3987 83.9674 36.1791 83.7629 37.0386C83.566 37.8683 83.5107 38.7054 83.5585 39.562C83.6018 40.323 83.6809 41.0676 83.9509 41.7809C84.4702 43.1523 85.3894 44.1207 86.8145 44.5594C88.1411 44.9683 89.4766 44.9519 90.8047 44.5952C91.6284 44.3744 92.3387 43.9372 92.8923 43.2761C93.44 42.6225 93.7787 41.8645 93.9578 41.0333C94.204 39.8903 94.2428 38.7412 94.0533 37.5863C93.7444 35.6971 92.8028 34.3064 90.8748 33.6095Z" fill="black" style="fill:black;fill-opacity:1;"/>
<path d="M193.793 44.4564C194.302 44.4594 194.345 44.5012 194.347 45.0086C194.351 46.4262 194.351 47.8423 194.347 49.2599C194.345 49.7404 194.295 49.7852 193.825 49.8001C193.669 49.8046 185.104 49.8016 178.952 49.8016C178.092 49.8016 178.092 49.8016 178.092 48.9674C178.092 42.3658 178.092 35.7628 178.092 29.1612C178.092 28.321 178.092 28.321 178.946 28.321C183.822 28.321 188.7 28.321 193.577 28.321C194.348 28.321 194.35 28.3225 194.35 29.0925C194.351 30.9489 194.347 33.1991 194.341 33.3439C194.334 33.5364 194.228 33.6408 194.041 33.6542C193.856 33.6677 188.93 33.6662 185.012 33.6677C184.031 33.6677 184.116 33.6035 184.113 34.5436C184.112 34.8823 184.113 35.2196 184.113 35.5583C184.115 36.3388 184.115 36.3402 184.873 36.3402C188.538 36.3417 192.1 36.3373 192.261 36.3417C192.758 36.3522 192.801 36.391 192.802 36.9073C192.807 38.3398 192.805 39.7739 192.802 41.2064C192.801 41.7346 192.756 41.7809 192.219 41.7824C189.788 41.7854 187.357 41.7854 184.928 41.7839C184.054 41.7839 184.113 41.754 184.113 42.5986C184.113 43.0821 184.106 43.5656 184.119 44.0476C184.128 44.3803 184.189 44.4311 184.524 44.452C184.65 44.4594 192.923 44.4505 193.793 44.4564Z" fill="black" style="fill:black;fill-opacity:1;"/>
<path d="M53.996 44.5535C54.5168 44.558 54.5959 44.6311 54.5988 45.134C54.6048 46.5023 54.6048 47.8707 54.5988 49.2391C54.5974 49.7061 54.5033 49.7897 54.0214 49.8001C53.5319 49.8091 45.3307 49.8031 39.2469 49.8031C38.4411 49.8031 38.4396 49.8016 38.4396 49.0122C38.4396 42.4107 38.4396 35.8091 38.4396 29.209C38.4396 28.4181 38.4411 28.4181 39.2454 28.4181H53.7781C54.5884 28.4181 54.6003 28.4285 54.6003 29.2164C54.6018 30.4356 54.6093 33.0544 54.5884 33.2245C54.5481 33.5409 54.4422 33.6379 54.1198 33.6618C53.9527 33.6737 48.9329 33.6662 45.0427 33.6677C44.3652 33.6677 44.3637 33.6692 44.3622 34.3273C44.3607 34.8421 44.3592 35.3584 44.3637 35.8732C44.3682 36.4015 44.401 36.4328 44.9546 36.4358C45.9305 36.4403 52.3844 36.4343 52.4859 36.4388C52.9634 36.4537 53.0484 36.5283 53.0514 37.0073C53.0574 38.3757 53.0559 39.7441 53.0529 41.1124C53.0514 41.6377 53.0066 41.6839 52.4665 41.6854C50.0356 41.6884 47.6063 41.6884 45.1755 41.6869C44.301 41.6869 44.3622 41.6586 44.3622 42.5032C44.3622 43.018 44.3577 43.5343 44.3652 44.0491C44.3712 44.4968 44.4189 44.549 44.8696 44.5505C46.3827 44.5535 53.2394 44.5475 53.996 44.5535Z" fill="black" style="fill:black;fill-opacity:1;"/>
<path d="M69.2942 28.3793C71.3595 28.7748 73.1322 29.6388 74.6095 31.1041C76.0749 32.5576 76.8493 34.3333 77.1672 36.3389C77.2135 36.6283 77.1388 36.7149 76.8434 36.7492C76.7479 36.7597 76.6509 36.7567 76.5539 36.7567C74.993 36.7567 73.4307 36.7582 71.8698 36.7567C71.3281 36.7552 71.2968 36.7403 71.1341 36.2538C70.6492 34.8063 69.5748 33.9901 68.1736 33.5947C66.8306 33.2156 65.4592 33.2306 64.1341 33.6976C62.7732 34.1766 61.7898 35.0899 61.3019 36.4702C60.714 38.134 60.7169 39.8292 61.2347 41.496C61.8018 43.321 63.1149 44.3685 64.9728 44.7296C66.0263 44.9341 67.0843 44.9132 68.1243 44.6237C69.248 44.3103 70.1881 43.7268 70.7865 42.6912C70.9461 42.4152 71.0536 42.1078 71.17 41.8093C71.3057 41.4587 71.3923 41.3691 71.7653 41.3676C73.4068 41.3617 75.0497 41.3602 76.6912 41.3676C77.1224 41.3691 77.1926 41.4766 77.1359 41.8944C76.8986 43.6612 76.2241 45.2429 75.0781 46.6053C74.423 47.3843 73.6291 48.017 72.7487 48.5363C71.4535 49.2988 70.0538 49.748 68.5705 49.9434C65.8382 50.306 63.1761 50.1031 60.6602 48.8705C59.835 48.4661 59.0949 47.9334 58.407 47.3127C57.537 46.5263 56.8088 45.6384 56.2537 44.6147C55.7135 43.6209 55.3315 42.5644 55.145 41.4393C54.7451 39.0219 54.8943 36.6612 55.8598 34.3855C56.2582 33.4469 56.8237 32.6158 57.4803 31.8294C58.1503 31.0265 58.9352 30.3759 59.7992 29.8134C61.0154 29.0225 62.3584 28.5614 63.7864 28.3077C65.0324 28.0869 66.2844 28.1018 67.5364 28.1361C68.1124 28.154 68.6824 28.2883 69.2942 28.3793Z" fill="black" style="fill:black;fill-opacity:1;"/>
<path d="M45.0637 5.54974C44.9354 5.54974 44.8055 5.55272 44.6772 5.55571C44.4862 5.56167 44.3773 5.6527 44.3698 5.85117C44.3668 5.94816 44.3638 6.04366 44.3638 6.14066C44.3638 7.39711 44.3638 8.65207 44.3638 9.90852C44.3638 10.0055 44.3594 10.1025 44.3713 10.198C44.4011 10.4591 44.4817 10.5457 44.7458 10.5293C45.6248 10.4756 52.3771 9.99208 52.8561 9.96821C53.0799 9.95627 53.3067 9.96373 53.5321 9.97418C53.6992 9.98164 53.7992 10.0756 53.8156 10.2458C53.8245 10.3413 53.829 10.4383 53.829 10.5353C53.8305 11.9036 53.832 13.272 53.829 14.6404C53.8275 15.1641 53.7529 15.2193 53.1918 15.3014C52.3248 15.4268 46.3112 15.7356 44.3698 15.8147C44.3624 17.5159 44.3653 19.217 44.3653 20.9181C44.3653 21.6851 44.3638 21.6866 43.5849 21.6866C42.0211 21.6866 38.7173 21.6821 38.4785 21.6508C38.4427 21.3867 38.4397 10.6546 38.4412 1.03577C38.4412 0.194156 38.4487 0.319499 39.5499 0.3001C44.1087 0.222505 48.6689 0.255335 53.2276 0.301594C54.214 0.31204 54.2155 0.222507 54.2155 1.03428C54.217 2.30565 54.2155 3.57851 54.2155 4.84989C54.2155 4.97822 54.2125 5.10804 54.2065 5.23637C54.1976 5.43036 54.0842 5.52736 53.8991 5.54079C53.7544 5.55123 53.6096 5.55272 53.4649 5.55272C52.0473 5.54974 46.4156 5.54974 45.0637 5.54974Z" fill="black" style="fill:black;fill-opacity:1;"/>
<path d="M72.2519 5.54832C71.8341 5.53489 71.7744 5.47818 71.761 5.07379C71.7505 4.77385 71.758 2.32661 71.7595 1.01793C71.7595 0.873188 71.7625 0.728442 71.7759 0.583697C71.7923 0.41806 71.8893 0.321063 72.0594 0.310618C72.1877 0.303156 72.3161 0.300171 72.4459 0.300171C72.4459 0.300171 81.9081 0.300171 86.6384 0.300171C86.6862 0.300171 86.7354 0.300171 86.7832 0.300171C87.2935 0.310616 87.3368 0.346432 87.3383 0.852295C87.3427 2.23708 87.3427 3.62186 87.3383 5.00515C87.3368 5.49907 87.2875 5.54533 86.7697 5.54682C85.6267 5.5513 84.4851 5.54832 83.3421 5.54832C83.2302 5.54832 83.1168 5.54683 83.0049 5.54981C82.5512 5.56175 82.5154 5.59308 82.5139 6.05716C82.5094 7.47776 82.5124 13.6973 82.5124 15.6671C82.5124 15.8118 82.5154 15.9566 82.5184 16.1013C82.5244 16.3177 82.6393 16.4236 82.8526 16.4266C83.0302 16.4296 85.2551 16.4326 86.6668 16.4326C86.7951 16.4326 86.9249 16.4356 87.0518 16.4445C87.2204 16.4579 87.3144 16.5549 87.3278 16.7236C87.3383 16.8519 87.3398 16.9802 87.3398 17.1101C87.3412 18.4143 87.3412 19.7185 87.3398 21.0212C87.3383 21.6539 87.3159 21.6807 86.6936 21.6807C84.8075 21.6837 77.1449 21.6822 72.5011 21.6807C71.758 21.6807 71.7565 21.6792 71.7565 20.9242C71.755 19.7005 71.7565 18.4769 71.7565 17.2533C71.7565 17.1399 71.752 17.028 71.761 16.9161C71.7878 16.537 71.8759 16.4535 72.2713 16.4341C72.3832 16.4281 72.4966 16.4311 72.6085 16.4311C73.7188 16.4311 74.829 16.4311 75.9392 16.4311C76.0675 16.4311 76.1973 16.4281 76.3242 16.4192C76.4749 16.4087 76.56 16.3207 76.5719 16.1729C76.5838 16.0446 76.5853 15.9163 76.5853 15.7879C76.5853 12.6006 76.5868 9.41317 76.5853 6.22579C76.5853 5.54981 76.5823 5.54832 75.9183 5.54682C74.9379 5.54832 72.4608 5.55429 72.2519 5.54832Z" fill="black" style="fill:black;fill-opacity:1;"/>
<path d="M171.532 33.6707C171.246 33.6931 171.197 33.7393 171.176 34.0154C171.164 34.1825 171.17 42.7792 171.17 48.9869C171.17 49.8001 171.17 49.8001 170.339 49.8016C168.191 49.8016 165.622 49.8001 165.463 49.7912C165.272 49.7792 165.17 49.6718 165.161 49.4838C165.15 49.2823 165.15 41.4855 165.15 34.4646C165.15 33.6677 165.15 33.6677 164.359 33.6677C162.072 33.6677 159.09 33.6677 159.001 33.6677C158.434 33.6603 158.393 33.6259 158.392 33.0664C158.387 31.1847 158.395 28.7703 158.405 28.6718C158.429 28.4688 158.541 28.3479 158.748 28.333C158.92 28.3196 168.191 28.3196 177.14 28.3211C177.91 28.3211 177.931 28.342 177.931 29.1015C177.932 30.8086 177.935 33.1469 177.928 33.2544C177.906 33.5812 177.85 33.6498 177.519 33.6603C177.037 33.6737 171.661 33.6603 171.532 33.6707Z" fill="black" style="fill:black;fill-opacity:1;"/>
<path d="M133.845 28.8478C133.996 28.5255 134.214 28.4076 134.564 28.4106C136.212 28.4226 139.039 28.4136 140.051 28.4106C140.221 28.4106 140.329 28.5897 140.248 28.7389C139.202 30.6967 133.817 40.7662 132.6 42.9777C132.462 43.2299 132.441 43.494 132.442 43.7701C132.445 45.5413 132.444 47.3126 132.444 49.0839C132.444 49.7956 132.439 49.8001 131.708 49.8001C130.153 49.8016 126.966 49.7986 126.831 49.7897C126.64 49.7777 126.541 49.6673 126.53 49.4793C126.521 49.3092 126.509 46.2322 126.524 43.9252C126.527 43.5402 126.439 43.1985 126.253 42.8673C125.221 41.0438 119.754 30.7191 118.706 28.7374C118.627 28.5882 118.736 28.4091 118.905 28.4106C119.827 28.4151 122.294 28.4255 124.398 28.4076C124.713 28.4046 124.999 28.5852 125.132 28.8702C126.024 30.7788 128.248 35.4375 128.533 35.9657C128.785 36.4328 128.898 36.9163 128.876 37.4475C128.852 38.0429 128.865 38.6383 128.873 39.2352C128.879 39.653 128.936 39.7008 129.35 39.7172C130.256 39.7515 130.056 39.7172 130.101 38.3503C130.116 37.9026 130.098 37.4535 130.091 37.0058C130.085 36.7029 130.155 36.4313 130.287 36.1612C131.063 34.5914 133.538 29.5044 133.845 28.8478Z" fill="black" style="fill:black;fill-opacity:1;"/>
<path d="M154.722 0.300191C155.513 0.300191 155.524 0.312132 155.524 1.11942C155.525 2.87726 155.524 5.04695 155.515 5.17528C155.498 5.40508 155.367 5.52446 155.143 5.53938C154.933 5.55281 149.356 5.54535 149.206 5.55281C148.816 5.56923 148.779 5.60803 148.765 6.01391C148.759 6.18104 148.764 13.8302 148.764 20.8869C148.764 21.6837 148.762 21.6852 147.966 21.6852C146.102 21.6852 143.396 21.6927 143.235 21.6807C142.934 21.6569 142.87 21.5972 142.846 21.3032C142.831 21.1152 142.838 13.1378 142.84 6.38099C142.84 5.50208 142.873 5.54983 141.986 5.54983C140.134 5.54983 136.619 5.5543 136.483 5.54684C136.093 5.52595 135.996 5.4409 135.988 5.05292C135.974 4.46797 135.98 1.84912 135.983 0.997061C135.986 0.356898 136.038 0.301684 136.668 0.300191C139.035 0.298699 151.102 0.298699 154.722 0.300191Z" fill="black" style="fill:black;fill-opacity:1;"/>
<path d="M55.633 0.85676C55.6359 0.347913 55.6818 0.301653 56.1825 0.301653C57.7629 0.297177 59.3448 0.298669 60.9252 0.301653C61.4762 0.303146 61.5058 0.337468 61.5088 0.917942C61.5132 1.73568 61.5088 10.4891 61.5103 15.9849C61.5103 16.7236 61.5117 16.725 62.2568 16.725C62.8892 16.725 69.2627 16.5728 70.4817 16.5296C70.7039 16.5221 70.9261 16.4938 71.1483 16.4744C71.4253 16.449 71.5289 16.5251 71.566 16.8041C71.5808 16.9146 71.5763 17.0295 71.5763 17.1414C71.5763 18.4456 71.5763 19.7483 71.5763 21.0525C71.5763 21.1495 71.5719 21.245 71.5704 21.342C71.5674 21.5599 71.4475 21.6598 71.2416 21.6762C70.7084 21.7165 59.8158 21.9657 58.2324 21.9762C57.7925 21.9792 57.3822 21.8777 56.9867 21.6837C56.3039 21.3494 55.8996 20.7988 55.7485 20.0646C55.6744 19.705 55.6359 19.332 55.6359 18.9649C55.6285 13.8316 55.6255 1.72673 55.633 0.85676Z" fill="black" style="fill:black;fill-opacity:1;"/>
<path d="M10.7216 28.4405C10.7216 26.4111 10.7216 24.431 10.7216 22.4508C10.7216 22.306 10.7186 22.1613 10.7156 22.0165C10.7112 21.8002 10.5948 21.6942 10.3814 21.6912C10.2366 21.6882 10.0919 21.6853 9.94715 21.6853C6.90451 21.6853 3.86336 21.6853 0.820722 21.6853C0.0223833 21.6853 0.0014914 21.6659 0.0014914 20.8795C0.0014914 14.1809 0.0014914 7.4823 0.0014914 0.783712C0.0014914 0.0122333 0.00298542 0.0107422 0.777449 0.0107422C9.79047 0.0107422 18.805 0.0107422 27.818 0.0107422C28.6208 0.0107422 28.6208 0.0122311 28.6208 0.800124C28.6208 3.92334 28.6208 7.04806 28.6208 10.1713C28.6208 10.9323 28.594 10.9592 27.8329 10.9607C22.4729 10.9607 17.1128 10.9622 11.7527 10.9607C10.8798 10.9607 10.9469 10.9383 10.9469 11.7844C10.9469 14.7628 10.9469 17.7428 10.9469 20.7213C10.9469 21.457 10.9484 21.4584 11.7035 21.4584C17.0471 21.4584 22.3908 21.4584 27.7344 21.4584C28.6193 21.4584 28.6208 21.4584 28.6208 22.3389C28.6208 25.4472 28.6208 28.554 28.6208 31.6623C28.6208 32.4084 28.6193 32.4099 27.8672 32.4099C22.4908 32.4099 17.1158 32.4114 11.7393 32.4099C10.8932 32.4099 10.9469 32.3919 10.9469 33.1992C10.9469 38.5608 10.9469 43.9238 10.9469 49.2854C10.9469 50.0897 10.9469 50.0912 10.1561 50.0912C7.03284 50.0912 3.91111 50.0912 0.787893 50.0912C0.00149202 50.0912 0 50.0897 0 49.3287C0 43.8865 0 38.4429 0 33.0008C0 32.2039 0.0193986 32.1845 0.808784 32.1845C3.88276 32.1845 6.95674 32.1845 10.0322 32.1845C10.7186 32.1845 10.7201 32.183 10.7201 31.4847C10.7216 30.4864 10.7216 29.4881 10.7216 28.4405Z" fill="black" style="fill:black;fill-opacity:1;"/>
<path d="M17.6753 39.944C17.6753 39.162 17.6977 39.1411 18.496 39.1396C18.496 39.1396 24.7052 39.1396 27.809 39.1396C28.6088 39.1396 28.6207 39.1516 28.6207 39.9469C28.6207 43.0851 28.6207 46.2217 28.6207 49.3599C28.6207 50.0821 28.6148 50.0896 27.9 50.0896C24.732 50.0911 21.5625 50.0911 18.3945 50.0896C17.6783 50.0896 17.6768 50.0866 17.6768 49.3554C17.6738 48.7779 17.6738 42.4703 17.6753 39.944Z" fill="black" style="fill:black;fill-opacity:1;"/>
</svg>
